<svg xmlns="http://www.w3.org/2000/svg" width="680" height="430" viewBox="0 0 680 430" font-family="-apple-system,Segoe UI,Roboto,Helvetica,Arial,sans-serif" role="img" aria-label="Greenlight architecture diagram">
<defs>
<marker id="ah" viewBox="0 0 10 10" refX="8" refY="5" markerWidth="6" markerHeight="6" orient="auto-start-reverse">
<path d="M2 1L8 5L2 9" fill="none" stroke="context-stroke" stroke-width="1.5" stroke-linecap="round" stroke-linejoin="round"/></marker>
</defs>

<rect x="240" y="34" width="200" height="52" rx="8" fill="#534AB7"/>
<text x="340" y="58" fill="#fff" font-size="14" font-weight="500" text-anchor="middle">ModelRollout (CR)</text>
<text x="340" y="76" fill="#CECBF6" font-size="12" text-anchor="middle">your rollout intent</text>

<line x1="340" y1="86" x2="340" y2="122" stroke="#888780" stroke-width="1.5" marker-end="url(#ah)"/>

<rect x="205" y="124" width="270" height="56" rx="8" fill="#0F6E56"/>
<text x="340" y="148" fill="#fff" font-size="14" font-weight="500" text-anchor="middle">Greenlight controller</text>
<text x="340" y="167" fill="#9FE1CB" font-size="12" text-anchor="middle">shift · evaluate · decide</text>

<rect x="56" y="278" width="172" height="58" rx="8" fill="#5F5E5A"/>
<text x="142" y="301" fill="#fff" font-size="14" font-weight="500" text-anchor="middle">Traffic split</text>
<text x="142" y="319" fill="#D3D1C7" font-size="12" text-anchor="middle">KServe canary</text>

<rect x="254" y="278" width="172" height="58" rx="8" fill="#5F5E5A"/>
<text x="340" y="301" fill="#fff" font-size="14" font-weight="500" text-anchor="middle">Serving</text>
<text x="340" y="319" fill="#D3D1C7" font-size="12" text-anchor="middle">runs v1 + v2</text>

<rect x="452" y="278" width="172" height="58" rx="8" fill="#5F5E5A"/>
<text x="538" y="301" fill="#fff" font-size="14" font-weight="500" text-anchor="middle">Gates</text>
<text x="538" y="319" fill="#D3D1C7" font-size="12" text-anchor="middle">latency + LLM quality</text>

<line x1="288" y1="180" x2="150" y2="276" stroke="#1D9E75" stroke-width="2" marker-end="url(#ah)"/>
<text x="238" y="224" fill="#888780" font-size="12" text-anchor="start">shift %</text>

<line x1="228" y1="307" x2="252" y2="307" stroke="#888780" stroke-width="1.5" marker-end="url(#ah)"/>
<line x1="426" y1="307" x2="450" y2="307" stroke="#888780" stroke-width="1.5" marker-end="url(#ah)"/>

<line x1="524" y1="276" x2="412" y2="182" stroke="#1D9E75" stroke-width="2" marker-end="url(#ah)"/>
<text x="448" y="222" fill="#888780" font-size="12" text-anchor="start">gate results</text>

<rect x="452" y="356" width="172" height="44" rx="8" fill="none" stroke="#BA7517" stroke-width="1.5" stroke-dasharray="5 4"/>
<text x="538" y="375" fill="#BA7517" font-size="13" font-weight="500" text-anchor="middle">Drift + cost</text>
<text x="538" y="391" fill="#BA7517" font-size="11" text-anchor="middle">Evidently — planned</text>
<line x1="538" y1="336" x2="538" y2="354" stroke="#BA7517" stroke-width="1.5" stroke-dasharray="5 4" marker-end="url(#ah)"/>

<line x1="56" y1="416" x2="86" y2="416" stroke="#1D9E75" stroke-width="2"/>
<text x="94" y="420" fill="#888780" font-size="12">built &amp; working</text>
<line x1="240" y1="416" x2="270" y2="416" stroke="#BA7517" stroke-width="1.5" stroke-dasharray="5 4"/>
<text x="278" y="420" fill="#888780" font-size="12">planned</text>
</svg>
